<svg width="136" height="50" viewBox="0 0 136 50" fill="none" xmlns="http://www.w3.org/2000/svg">
<path d="M135.817 0H0V50H135.817V0Z" fill="#EA3C12"/>
<g clip-path="url(#clip0_1259_32)">
<g clip-path="url(#clip1_1259_32)">
<path d="M38.4634 14.4117C38.4634 13.8866 38.2502 13.4609 37.9873 13.4609C37.7244 13.4609 37.5112 13.8866 37.5112 14.4117V35.4705C37.5112 35.9956 37.7244 36.4212 37.9873 36.4212C38.2502 36.4212 38.4634 35.9956 38.4634 35.4705V14.4117Z" fill="white"/>
<g clip-path="url(#clip2_1259_32)">
<g clip-path="url(#clip3_1259_32)">
<g clip-path="url(#clip4_1259_32)">
<g clip-path="url(#clip5_1259_32)">
<path d="M47.3406 15.143L47.0047 15.7949C46.9629 15.8669 46.9185 15.921 46.8709 15.9572C46.8234 15.9913 46.7619 16.0084 46.6859 16.0084C46.6042 16.0084 46.5103 15.9686 46.4041 15.8889C46.2979 15.8072 46.1621 15.7181 45.997 15.6213C45.8339 15.5245 45.6375 15.4354 45.4078 15.3537C45.178 15.274 44.8991 15.2341 44.5708 15.2341C44.2634 15.2341 43.991 15.276 43.7538 15.3594C43.5167 15.4411 43.3183 15.5529 43.1589 15.6953C42.9995 15.8376 42.8799 16.0056 42.8002 16.1991C42.7185 16.3907 42.6778 16.5977 42.6778 16.8197C42.6778 17.1044 42.7481 17.3407 42.8885 17.5285C43.0271 17.7164 43.2121 17.8767 43.4436 18.0096C43.6733 18.1426 43.934 18.2573 44.2264 18.3541C44.5187 18.4509 44.8176 18.5513 45.1231 18.6558C45.4285 18.7603 45.7274 18.8779 46.0198 19.0088C46.3121 19.1398 46.5729 19.3049 46.8026 19.5041C47.0324 19.7034 47.2174 19.9474 47.3577 20.2357C47.4981 20.5261 47.5684 20.8819 47.5684 21.3032C47.5684 21.7493 47.4924 22.1686 47.3406 22.5615C47.1889 22.9523 46.9669 23.2922 46.6745 23.5806C46.3822 23.8709 46.0235 24.0987 45.5985 24.2638C45.1752 24.4309 44.6932 24.5143 44.1524 24.5143C43.4919 24.5143 42.8904 24.3947 42.3476 24.1556C41.8047 23.9145 41.3407 23.59 40.9556 23.182L41.3541 22.5273C41.392 22.4761 41.4386 22.4325 41.4936 22.3963C41.5485 22.3602 41.6094 22.3423 41.6758 22.3423C41.7746 22.3423 41.8884 22.3963 42.0174 22.5045C42.1446 22.6107 42.304 22.7274 42.4956 22.8547C42.6892 22.9836 42.9218 23.1015 43.193 23.2076C43.4663 23.3138 43.8002 23.3671 44.1951 23.3671C44.5216 23.3671 44.8128 23.3224 45.069 23.2333C45.3252 23.1422 45.5424 23.0149 45.7209 22.8518C45.8994 22.6887 46.036 22.4931 46.1308 22.2654C46.2256 22.0377 46.2731 21.7835 46.2731 21.5025C46.2731 21.1951 46.2028 20.9426 46.0625 20.7453C45.9222 20.548 45.738 20.3829 45.5102 20.25C45.2825 20.117 45.0226 20.0051 44.7303 19.914C44.4399 19.821 44.141 19.7262 43.8335 19.6294C43.5281 19.5306 43.2292 19.4179 42.9368 19.2906C42.6465 19.1617 42.3874 18.9954 42.1597 18.7925C41.932 18.5875 41.7478 18.3322 41.6075 18.0267C41.4671 17.7213 41.3968 17.3427 41.3968 16.8909C41.3968 16.5302 41.4671 16.1821 41.6075 15.8462C41.7478 15.5083 41.951 15.2094 42.2166 14.9495C42.4822 14.6876 42.8107 14.4789 43.2016 14.3232C43.5924 14.1658 44.0422 14.0869 44.5509 14.0869C45.1183 14.0869 45.6375 14.178 46.108 14.3602C46.5786 14.5387 46.9897 14.7994 47.3406 15.143ZM52.476 20.5859H50.8392V24.4004H49.4671V14.2008H52.476C53.1231 14.2008 53.685 14.2756 54.1613 14.4257C54.6375 14.5757 55.0323 14.788 55.3455 15.0633C55.6586 15.3386 55.892 15.6705 56.0458 16.0597C56.2015 16.4488 56.2792 16.8823 56.2792 17.3606C56.2792 17.8351 56.1958 18.2695 56.0287 18.6644C55.8636 19.0592 55.6208 19.3988 55.2999 19.6835C54.9791 19.9661 54.5817 20.1873 54.1072 20.3467C53.6326 20.5062 53.0889 20.5859 52.476 20.5859ZM50.8392 15.2911V19.4899H52.476C52.8709 19.4899 53.219 19.4378 53.5208 19.3333C53.8205 19.2289 54.073 19.0828 54.278 18.8949C54.4829 18.7071 54.6375 18.483 54.742 18.2231C54.8445 17.9612 54.8957 17.6737 54.8957 17.3606C54.8957 16.7115 54.6956 16.204 54.2951 15.8376C53.8945 15.4732 53.2882 15.2911 52.476 15.2911H50.8392ZM67.4922 19.3049C67.4922 20.0678 67.3718 20.7689 67.1307 21.4086C66.8896 22.0462 66.548 22.5948 66.1059 23.0539C65.6638 23.5151 65.1332 23.8729 64.5146 24.1271C63.896 24.3813 63.2117 24.5086 62.4622 24.5086C61.7126 24.5086 61.0294 24.3813 60.4126 24.1271C59.7957 23.8729 59.2662 23.5151 58.8241 23.0539C58.3837 22.5948 58.0433 22.0462 57.8022 21.4086C57.5593 20.7689 57.4378 20.0678 57.4378 19.3049C57.4378 18.54 57.5593 17.8388 57.8022 17.2012C58.0433 16.5635 58.3837 16.0133 58.8241 15.5501C59.2662 15.0889 59.7957 14.7294 60.4126 14.4712C61.0294 14.215 61.7126 14.0869 62.4622 14.0869C63.2117 14.0869 63.896 14.215 64.5146 14.4712C65.1332 14.7294 65.6638 15.0889 66.1059 15.5501C66.548 16.0133 66.8896 16.5635 67.1307 17.2012C67.3718 17.8388 67.4922 18.54 67.4922 19.3049ZM66.0774 19.3049C66.0774 18.6786 65.992 18.1158 65.8212 17.6168C65.6504 17.1195 65.4085 16.6993 65.0953 16.3557C64.7822 16.0104 64.4027 15.7457 63.9567 15.5615C63.5106 15.3773 63.0124 15.2854 62.4622 15.2854C61.9176 15.2854 61.4223 15.3773 60.9762 15.5615C60.5284 15.7457 60.147 16.0104 59.8318 16.3557C59.5167 16.6993 59.2739 17.1195 59.1031 17.6168C58.9323 18.1158 58.8469 18.6786 58.8469 19.3049C58.8469 19.9311 58.9323 20.4919 59.1031 20.9872C59.2739 21.4826 59.5167 21.903 59.8318 22.2483C60.147 22.5919 60.5284 22.8547 60.9762 23.0368C61.4223 23.219 61.9176 23.3101 62.4622 23.3101C63.0124 23.3101 63.5106 23.219 63.9567 23.0368C64.4027 22.8547 64.7822 22.5919 65.0953 22.2483C65.4085 21.903 65.6504 21.4826 65.8212 20.9872C65.992 20.4919 66.0774 19.9311 66.0774 19.3049ZM71.9416 20.1446H70.8968V24.4004H69.5219V14.2008H72.4056C73.0509 14.2008 73.6077 14.2663 74.0766 14.3972C74.5471 14.5281 74.9354 14.7169 75.2409 14.9637C75.5463 15.2105 75.7732 15.5083 75.9212 15.8575C76.0672 16.2048 76.1404 16.5948 76.1404 17.0275C76.1404 17.3882 76.0835 17.725 75.9696 18.0381C75.8557 18.3512 75.6906 18.6322 75.4743 18.8807C75.2599 19.1312 74.9969 19.3439 74.6858 19.5184C74.3746 19.6929 74.0225 19.8258 73.6296 19.9169C73.8004 20.0157 73.9522 20.1597 74.0851 20.3496L77.0599 24.4004H75.8358C75.5833 24.4004 75.3983 24.3028 75.2807 24.1072L72.6333 20.4635C72.5516 20.3496 72.4634 20.2679 72.3686 20.2186C72.2738 20.1694 72.1314 20.1446 71.9416 20.1446ZM70.8968 15.2911V19.1398H72.3401C72.7443 19.1398 73.0993 19.0914 73.4048 18.9946C73.7102 18.8978 73.9664 18.7603 74.1734 18.5818C74.3803 18.4033 74.5357 18.191 74.6402 17.9442C74.7447 17.6973 74.7968 17.4252 74.7968 17.1272C74.7968 16.52 74.5955 16.0616 74.1933 15.7522C73.7928 15.4448 73.1969 15.2911 72.4056 15.2911H70.8968ZM77.1367 14.2008H85.1217V15.3622H81.8281V24.4004H80.4474V15.3622H77.1367V14.2008ZM92.133 15.143L91.7971 15.7949C91.7552 15.8669 91.7108 15.921 91.6633 15.9572C91.6158 15.9913 91.5543 16.0084 91.4783 16.0084C91.3966 16.0084 91.3026 15.9686 91.1964 15.8889C91.0903 15.8072 90.9545 15.7181 90.7894 15.6213C90.6263 15.5245 90.4298 15.4354 90.2001 15.3537C89.9704 15.274 89.6914 15.2341 89.3632 15.2341C89.0557 15.2341 88.7833 15.276 88.5462 15.3594C88.3091 15.4411 88.1107 15.5529 87.9512 15.6953C87.7918 15.8376 87.6723 16.0056 87.5926 16.1991C87.5109 16.3907 87.4702 16.5977 87.4702 16.8197C87.4702 17.1044 87.5405 17.3407 87.6808 17.5285C87.8211 17.7164 88.0062 17.8767 88.2359 18.0096C88.4656 18.1426 88.7264 18.2573 89.0187 18.3541C89.3111 18.4509 89.61 18.5513 89.9154 18.6558C90.2209 18.7603 90.5198 18.8779 90.8121 19.0088C91.1045 19.1398 91.3652 19.3049 91.595 19.5041C91.8247 19.7034 92.0097 19.9474 92.1501 20.2357C92.2904 20.5261 92.3607 20.8819 92.3607 21.3032C92.3607 21.7493 92.2847 22.1686 92.133 22.5615C91.9813 22.9523 91.7592 23.2922 91.4669 23.5806C91.1745 23.8709 90.8158 24.0987 90.3908 24.2638C89.9675 24.4309 89.4856 24.5143 88.9447 24.5143C88.2843 24.5143 87.6828 24.3947 87.1399 24.1556C86.5971 23.9145 86.1331 23.59 85.7479 23.182L86.1465 22.5273C86.1843 22.4761 86.231 22.4325 86.2859 22.3963C86.3409 22.3602 86.4018 22.3423 86.4681 22.3423C86.5669 22.3423 86.6808 22.3963 86.8097 22.5045C86.937 22.6107 87.0964 22.7274 87.288 22.8547C87.4815 22.9836 87.7141 23.1015 87.9854 23.2076C88.2587 23.3138 88.5926 23.3671 88.9874 23.3671C89.3139 23.3671 89.6052 23.3224 89.8614 23.2333C90.1176 23.1422 90.3348 23.0149 90.5132 22.8518C90.6917 22.6887 90.8284 22.4931 90.9232 22.2654C91.018 22.0377 91.0655 21.7835 91.0655 21.5025C91.0655 21.1951 90.9952 20.9426 90.8548 20.7453C90.7145 20.548 90.5303 20.3829 90.3026 20.25C90.0749 20.117 89.815 20.0051 89.5226 19.914C89.2322 19.821 88.9333 19.7262 88.6259 19.6294C88.3205 19.5306 88.0215 19.4179 87.7292 19.2906C87.4388 19.1617 87.1798 18.9954 86.9521 18.7925C86.7243 18.5875 86.5401 18.3322 86.3998 18.0267C86.2595 17.7213 86.1892 17.3427 86.1892 16.8909C86.1892 16.5302 86.2595 16.1821 86.3998 15.8462C86.5401 15.5083 86.7434 15.2094 87.009 14.9495C87.2746 14.6876 87.6031 14.4789 87.9939 14.3232C88.3848 14.1658 88.8346 14.0869 89.3433 14.0869C89.9126 14.0869 90.4315 14.178 90.9004 14.3602C91.3709 14.5387 91.782 14.7994 92.133 15.143Z" fill="white"/>
<path d="M45.3908 35.6817H41.7812V25.482H45.035C45.6593 25.482 46.1984 25.5438 46.6519 25.6671C47.1054 25.7923 47.4783 25.968 47.7706 26.1937C48.063 26.4214 48.2782 26.7004 48.4168 27.0306C48.5572 27.3608 48.6275 27.7318 48.6275 28.1437C48.6275 28.3962 48.5885 28.6381 48.5108 28.8696C48.4331 29.103 48.3144 29.3193 48.1549 29.5186C47.9955 29.7179 47.7963 29.8952 47.5571 30.0509C47.318 30.2084 47.0371 30.3365 46.7145 30.4352C47.4584 30.5833 48.0203 30.8517 48.3998 31.2408C48.7792 31.63 48.9691 32.1424 48.9691 32.778C48.9691 33.2088 48.8894 33.6027 48.73 33.9594C48.5726 34.3161 48.34 34.6218 48.0325 34.876C47.7271 35.1322 47.3522 35.3307 46.9081 35.471C46.466 35.6113 45.9602 35.6817 45.3908 35.6817ZM45.3624 31.0359H43.1619V34.5857H45.3681C45.7629 34.5857 46.1005 34.5401 46.3815 34.449C46.6641 34.3599 46.8967 34.2336 47.0789 34.0704C47.2631 33.9053 47.3977 33.7109 47.4831 33.4869C47.5685 33.2611 47.6112 33.0123 47.6112 32.741C47.6112 32.2153 47.4242 31.7996 47.0504 31.4942C46.6784 31.1888 46.1159 31.0359 45.3624 31.0359ZM43.1619 26.5723V30.0509H44.9838C45.3729 30.0509 45.7097 30.0082 45.9943 29.9228C46.279 29.8374 46.5153 29.7187 46.7031 29.567C46.891 29.4153 47.0297 29.232 47.1188 29.0176C47.2098 28.8012 47.2554 28.565 47.2554 28.3088C47.2554 27.711 47.0752 27.2717 46.7145 26.9908C46.3539 26.7118 45.7942 26.5723 45.035 26.5723H43.1619ZM60.4611 30.5861C60.4611 31.349 60.3407 32.0502 60.0996 32.6898C59.8585 33.3275 59.5169 33.876 59.0748 34.3352C58.6344 34.7963 58.1041 35.1542 57.4835 35.4084C56.8649 35.6626 56.1806 35.7898 55.431 35.7898C54.6815 35.7898 53.9983 35.6626 53.3814 35.4084C52.7646 35.1542 52.2362 34.7963 51.7958 34.3352C51.3537 33.876 51.0121 33.3275 50.771 32.6898C50.5282 32.0502 50.4067 31.349 50.4067 30.5861C50.4067 29.8212 50.5282 29.1201 50.771 28.4824C51.0121 27.8448 51.3537 27.2945 51.7958 26.8314C52.2362 26.3702 52.7646 26.0107 53.3814 25.7525C53.9983 25.4963 54.6815 25.3682 55.431 25.3682C56.1806 25.3682 56.8649 25.4963 57.4835 25.7525C58.1041 26.0107 58.6344 26.3702 59.0748 26.8314C59.5169 27.2945 59.8585 27.8448 60.0996 28.4824C60.3407 29.1201 60.4611 29.8212 60.4611 30.5861ZM59.0463 30.5861C59.0463 29.9598 58.9609 29.3971 58.7901 28.898C58.6193 28.4007 58.3773 27.9806 58.0642 27.637C57.7511 27.2917 57.3716 27.0269 56.9255 26.8427C56.4795 26.6586 55.9813 26.5666 55.431 26.5666C54.8845 26.5666 54.3892 26.6586 53.9451 26.8427C53.499 27.0269 53.1175 27.2917 52.8007 27.637C52.4856 27.9806 52.2428 28.4007 52.072 28.898C51.9012 29.3971 51.8158 29.9598 51.8158 30.5861C51.8158 31.2124 51.9012 31.7732 52.072 32.2685C52.2428 32.7638 52.4856 33.1843 52.8007 33.5296C53.1175 33.8732 53.499 34.1359 53.9451 34.3181C54.3892 34.5003 54.8845 34.5914 55.431 34.5914C55.9813 34.5914 56.4795 34.5003 56.9255 34.3181C57.3716 34.1359 57.7511 33.8732 58.0642 33.5296C58.3773 33.1843 58.6193 32.7638 58.7901 32.2685C58.9609 31.7732 59.0463 31.2124 59.0463 30.5861ZM71.8222 30.5861C71.8222 31.349 71.7006 32.0502 71.4578 32.6898C71.2167 33.3275 70.8751 33.876 70.433 34.3352C69.9909 34.7963 69.4603 35.1542 68.8417 35.4084C68.2231 35.6626 67.5388 35.7898 66.7892 35.7898C66.0397 35.7898 65.3565 35.6626 64.7396 35.4084C64.1228 35.1542 63.5933 34.7963 63.1512 34.3352C62.7108 33.876 62.3704 33.3275 62.1292 32.6898C61.8864 32.0502 61.7649 31.349 61.7649 30.5861C61.7649 29.8212 61.8864 29.1201 62.1292 28.4824C62.3704 27.8448 62.7108 27.2945 63.1512 26.8314C63.5933 26.3702 64.1228 26.0107 64.7396 25.7525C65.3565 25.4963 66.0397 25.3682 66.7892 25.3682C67.5388 25.3682 68.2231 25.4963 68.8417 25.7525C69.4603 26.0107 69.9909 26.3702 70.433 26.8314C70.8751 27.2945 71.2167 27.8448 71.4578 28.4824C71.7006 29.1201 71.8222 29.8212 71.8222 30.5861ZM70.4045 30.5861C70.4045 29.9598 70.3191 29.3971 70.1483 28.898C69.9775 28.4007 69.7355 27.9806 69.4224 27.637C69.1093 27.2917 68.7298 27.0269 68.2837 26.8427C67.8377 26.6586 67.3395 26.5666 66.7892 26.5666C66.2447 26.5666 65.7482 26.6586 65.3004 26.8427C64.8564 27.0269 64.4758 27.2917 64.1589 27.637C63.8438 27.9806 63.601 28.4007 63.4302 28.898C63.2594 29.3971 63.174 29.9598 63.174 30.5861C63.174 31.2124 63.2594 31.7732 63.4302 32.2685C63.601 32.7638 63.8438 33.1843 64.1589 33.5296C64.4758 33.8732 64.8564 34.1359 65.3004 34.3181C65.7482 34.5003 66.2447 34.5914 66.7892 34.5914C67.3395 34.5914 67.8377 34.5003 68.2837 34.3181C68.7298 34.1359 69.1093 33.8732 69.4224 33.5296C69.7355 33.1843 69.9775 32.7638 70.1483 32.2685C70.3191 31.7732 70.4045 31.2124 70.4045 30.5861ZM75.2239 25.482V29.9513H75.742C75.9222 29.9513 76.0657 29.9294 76.1719 29.8858C76.28 29.8403 76.3817 29.7626 76.4765 29.6524L79.8697 25.8094C79.9742 25.6918 80.0747 25.6081 80.1714 25.5589C80.2702 25.5077 80.3955 25.482 80.5472 25.482H81.72L77.8343 29.8744C77.7338 29.9826 77.6399 30.0746 77.5525 30.1506C77.4651 30.2266 77.3723 30.2881 77.2735 30.3356C77.4045 30.3792 77.5203 30.4438 77.6208 30.5292C77.7213 30.6146 77.8258 30.7208 77.934 30.848L81.9905 35.6817H80.7949C80.7058 35.6817 80.6298 35.674 80.5671 35.6589C80.5065 35.6455 80.4533 35.6267 80.4077 35.6019C80.3622 35.5792 80.3203 35.5487 80.2825 35.5109C80.2446 35.473 80.2065 35.432 80.1686 35.3884L76.6473 31.3405C76.594 31.2835 76.5448 31.2352 76.4992 31.1953C76.4557 31.1535 76.4033 31.1184 76.3427 31.09C76.2837 31.0615 76.2154 31.0416 76.1377 31.0302C76.06 31.0188 75.9641 31.0131 75.8502 31.0131H75.2239V35.6817H73.849V25.482H75.2239ZM85.0364 25.482V35.6817H83.6558V25.482H85.0364ZM88.4809 25.482C88.6041 25.482 88.6952 25.4983 88.7541 25.5304C88.8148 25.5609 88.8831 25.6235 88.9591 25.7183L94.8659 33.4043C94.8509 33.2811 94.8412 33.1615 94.8375 33.0456C94.8318 32.9281 94.8289 32.8151 94.8289 32.7069V25.482H96.0388V35.6817H95.3413C95.2332 35.6817 95.1421 35.6626 95.0681 35.6247C94.994 35.5869 94.922 35.5222 94.8517 35.4311L88.9506 27.7537C88.96 27.8712 88.9676 27.9871 88.9733 28.101C88.977 28.2148 88.979 28.3193 88.979 28.4141V35.6817H87.7692V25.482H88.4809ZM103.079 34.6768C103.354 34.6768 103.606 34.6645 103.836 34.6398C104.066 34.6133 104.283 34.5734 104.488 34.5202C104.691 34.469 104.883 34.4063 105.063 34.3323C105.243 34.2583 105.423 34.1738 105.604 34.079V31.8301H104.024C103.935 31.8301 103.862 31.8045 103.807 31.7532C103.752 31.7 103.725 31.6357 103.725 31.5597V30.7768H106.856V34.691C106.6 34.8769 106.333 35.0383 106.056 35.1749C105.779 35.3136 105.482 35.4292 105.165 35.5222C104.85 35.6133 104.512 35.6817 104.152 35.7272C103.791 35.7727 103.4 35.7955 102.979 35.7955C102.239 35.7955 101.56 35.6683 100.944 35.4141C100.327 35.1616 99.7955 34.8057 99.3495 34.3466C98.9034 33.8891 98.5552 33.3397 98.3047 32.6983C98.0562 32.0587 97.9318 31.3547 97.9318 30.5861C97.9318 29.8081 98.0542 29.0982 98.299 28.4568C98.5438 27.8172 98.892 27.2689 99.3438 26.8114C99.7972 26.3523 100.346 25.9973 100.989 25.7468C101.632 25.4943 102.353 25.3682 103.15 25.3682C103.552 25.3682 103.927 25.3986 104.274 25.4593C104.619 25.5182 104.94 25.6036 105.236 25.7155C105.534 25.8256 105.809 25.9603 106.059 26.1197C106.312 26.2791 106.547 26.4584 106.765 26.6577L106.372 27.284C106.292 27.4112 106.188 27.4747 106.059 27.4747C105.983 27.4747 105.9 27.4491 105.811 27.3978C105.692 27.3315 105.559 27.2507 105.413 27.1559C105.265 27.0611 105.085 26.97 104.875 26.8826C104.664 26.7935 104.415 26.7183 104.126 26.6577C103.84 26.5971 103.5 26.5666 103.107 26.5666C102.532 26.5666 102.012 26.6597 101.547 26.8456C101.082 27.0335 100.687 27.3019 100.36 27.6512C100.032 27.9985 99.7802 28.4206 99.6057 28.918C99.4292 29.4133 99.3409 29.9692 99.3409 30.5861C99.3409 31.2315 99.432 31.8065 99.6142 32.3112C99.7984 32.8159 100.056 33.244 100.388 33.595C100.721 33.946 101.114 34.2148 101.57 34.4007C102.025 34.5848 102.528 34.6768 103.079 34.6768Z" fill="white"/>
</g>
</g>
</g>
</g>
<g clip-path="url(#clip6_1259_32)">
<g clip-path="url(#clip7_1259_32)">
<path d="M34.9871 26.1803C34.8603 24.3302 34.0395 22.5963 32.689 21.3255C31.3385 20.0547 29.5579 19.3407 27.7036 19.3265C27.3142 18.0206 26.603 16.8335 25.6351 15.8742C24.6673 14.9149 23.4738 14.2143 22.1645 13.8366C20.8552 13.4589 19.472 13.4164 18.1419 13.7128C16.8118 14.0093 15.5776 14.6352 14.5526 15.5332C13.5276 16.4311 12.7447 17.5723 12.2758 18.8518C11.8069 20.1313 11.6671 21.5081 11.8692 22.8557C12.0714 24.2034 12.6089 25.4786 13.4325 26.5642C14.2561 27.6499 15.3393 28.5112 16.5826 29.0689C15.8272 29.4768 15.125 29.9762 14.4917 30.5558L13.3687 31.5742C13.2424 31.6896 13.1431 31.8316 13.078 31.9898C13.0128 32.1481 12.9835 32.3188 12.992 32.4897C13.0005 32.6606 13.0466 32.8275 13.1272 32.9785C13.2077 33.1295 13.3206 33.2609 13.4578 33.3632L14.7008 34.2964C16.4913 35.631 18.663 36.3558 20.8963 36.3641H22.0037C24.237 36.3558 26.4086 35.631 28.1992 34.2964L28.6368 33.9672C30.4011 33.7302 32.0196 32.8615 33.1923 31.5222C34.365 30.1829 35.0123 28.4638 35.0142 26.6837C35.0142 26.583 35.0142 26.4823 35.0142 26.3816C35.0249 26.3133 35.0155 26.2433 34.9871 26.1803ZM33.4383 29.6072C33.4049 29.5409 33.3533 29.4856 33.2894 29.4479C33.2256 29.4101 33.1523 29.3915 33.0782 29.3942H30.5264L29.6397 28.5075L30.325 26.1183L31.4867 25.5762L33.6319 27.0051C33.6971 27.0489 33.774 27.0718 33.8526 27.0709C33.9132 27.0705 33.9729 27.0559 34.0268 27.0283L34.2282 26.9276C34.1937 27.9068 33.941 28.8659 33.4886 29.7349L33.4383 29.6072ZM29.206 31.2528L28.4509 30.5558C27.7786 29.9439 27.0287 29.4231 26.2205 29.007H29.0472L29.8952 29.8589L29.206 31.2528ZM14.4491 16.736L19.3667 21.6498L18.1393 22.8773C16.7885 21.651 15.0647 20.9145 13.2448 20.7863L12.6214 20.7399C12.8049 19.2492 13.443 17.8512 14.4491 16.736ZM19.0492 14.9819C19.1783 16.8004 19.9147 18.5228 21.1402 19.8725L19.9127 21.1038L14.9989 16.1862C16.1141 15.1801 17.5121 14.542 19.0028 14.3585L19.0492 14.9819ZM25.3802 16.7321C26.0677 17.4932 26.5875 18.3903 26.9059 19.3652C25.6385 19.4989 24.4286 19.9636 23.3977 20.7127C22.9852 20.4693 22.5963 20.188 22.236 19.8725L25.3802 16.7321ZM29.4189 20.3488L29.5196 20.6469L27.6571 21.9518L25.7946 20.6469L25.8952 20.3488C27.0466 20.0183 28.2676 20.0183 29.4189 20.3488ZM29.4886 26.0486C29.4886 26.0486 29.4886 26.0486 29.4886 26.0719L29.5119 26.1106L28.9156 28.2325H26.3986L25.783 26.0757L27.6571 24.825L29.4886 26.0486ZM25.2873 25.4755L23.6958 24.8366L22.9834 23.0554C22.95 22.9667 22.8833 22.8944 22.7975 22.8541L22.4451 22.6759C23.1089 21.8143 23.9746 21.1294 24.9659 20.6818C24.9411 20.7603 24.942 20.8447 24.9685 20.9227C24.995 21.0007 25.0456 21.0682 25.1131 21.1155L27.2699 22.6256V24.1513L25.2873 25.4755ZM22.0076 23.3226L22.3173 23.4775L22.9446 25.0264L21.3958 26.5752L21.0744 26.4513C21.1149 25.3461 21.4361 24.2694 22.0076 23.3226ZM22.7394 21.2277C22.312 21.6113 21.93 22.0426 21.601 22.5133C21.5606 22.5476 21.5276 22.5897 21.5042 22.6372C21.5029 22.6514 21.5029 22.6657 21.5042 22.6798L20.4587 21.6498L21.6901 20.4185C22.0167 20.7169 22.3677 20.9876 22.7394 21.2277ZM19.9127 22.1958L21.0937 23.3768C20.6523 24.2452 20.389 25.1931 20.3193 26.1648C19.961 25.1503 19.4027 24.218 18.6775 23.4233L19.9127 22.1958ZM21.1867 27.8453C21.1557 27.6711 21.1286 27.4968 21.1092 27.3187L21.2873 27.4078C21.34 27.4395 21.4001 27.4568 21.4616 27.4581C21.5126 27.4584 21.5631 27.4486 21.6103 27.4294C21.6574 27.4101 21.7003 27.3817 21.7365 27.3458L23.4906 25.5878L25.0124 26.1996L25.721 28.7243C25.726 28.7453 25.7352 28.7651 25.7481 28.7824C24.4028 28.1668 22.941 27.8473 21.4616 27.8453H21.1867ZM32.9697 22.8115C33.6701 23.7662 34.0984 24.893 34.2088 26.0719L33.8797 26.2384L31.9785 24.9683L32.5941 22.8115H32.9697ZM32.3037 22.037C32.2168 22.0338 32.1313 22.06 32.0611 22.1112C31.9909 22.1625 31.9399 22.236 31.9165 22.3197L31.1885 24.856L29.9804 25.4329L28.0443 24.1513V22.6256L30.2011 21.1155C30.272 21.0709 30.3266 21.0045 30.3566 20.9264C30.3867 20.8482 30.3905 20.7623 30.3676 20.6818C31.0892 21.0135 31.745 21.4726 32.3037 22.037ZM24.8265 16.1862L21.6901 19.3265C20.5944 18.1093 19.9362 16.5613 19.8198 14.9277L19.7772 14.2927C21.6399 14.2585 23.4456 14.9356 24.8265 16.1862ZM12.5556 21.5143L13.179 21.5569C14.8161 21.6697 16.3686 22.3267 17.5894 23.4233L14.4491 26.5636C13.1985 25.1827 12.5214 23.377 12.5556 21.5143ZM14.9796 27.1173L18.1393 23.9731C19.1381 25.0841 19.772 26.4749 19.9553 27.9576C19.1283 28.0782 18.3193 28.3006 17.5468 28.6198C16.6025 28.2961 15.7332 27.7851 14.9912 27.1173H14.9796ZM27.7578 33.6768C26.0991 34.9153 24.0854 35.5861 22.0153 35.5897H20.9079C18.8378 35.5861 16.8241 34.9153 15.1654 33.6768L13.9225 32.7436C13.8764 32.7092 13.8386 32.6649 13.8118 32.614C13.785 32.5631 13.7699 32.5068 13.7676 32.4493C13.765 32.393 13.7747 32.3368 13.7961 32.2846C13.8175 32.2325 13.8501 32.1856 13.8915 32.1473L14.995 31.1328C15.7837 30.4168 16.6851 29.836 17.663 29.4136C17.7218 29.4032 17.7775 29.3793 17.8256 29.3439C19.5052 28.6497 21.348 28.4494 23.1376 28.7663C24.9271 29.0832 26.589 29.9041 27.9281 31.1328L29.0317 32.1473C29.0731 32.1856 29.1057 32.2325 29.1271 32.2846C29.1485 32.3368 29.1582 32.393 29.1556 32.4493C29.1533 32.5068 29.1382 32.5631 29.1114 32.614C29.0846 32.6649 29.0468 32.7092 29.0007 32.7436L27.7578 33.6768ZM29.8294 32.9024C29.8842 32.7798 29.9183 32.6489 29.9301 32.5152C29.9387 32.291 29.8822 32.0691 29.7674 31.8763L30.6077 30.1686H32.8381L33.0123 30.5133C32.2198 31.6103 31.1084 32.4365 29.8294 32.8792V32.9024Z" fill="white"/>
<path d="M24.9465 31.7173H24.5593V31.3301C24.5593 31.2274 24.5185 31.1289 24.4459 31.0563C24.3733 30.9837 24.2748 30.9429 24.1721 30.9429C24.0694 30.9429 23.9709 30.9837 23.8983 31.0563C23.8257 31.1289 23.7849 31.2274 23.7849 31.3301V31.7173H23.0104V31.3301C23.0104 31.2274 22.9696 31.1289 22.897 31.0563C22.8244 30.9837 22.7259 30.9429 22.6232 30.9429C22.5205 30.9429 22.422 30.9837 22.3494 31.0563C22.2768 31.1289 22.236 31.2274 22.236 31.3301V31.7173H21.4616V31.3301C21.4616 31.2274 21.4208 31.1289 21.3482 31.0563C21.2755 30.9837 21.177 30.9429 21.0743 30.9429C20.9716 30.9429 20.8732 30.9837 20.8005 31.0563C20.7279 31.1289 20.6871 31.2274 20.6871 31.3301V31.7173H19.9127V31.3301C19.9127 31.2274 19.8719 31.1289 19.7993 31.0563C19.7267 30.9837 19.6282 30.9429 19.5255 30.9429C19.4228 30.9429 19.3243 30.9837 19.2517 31.0563C19.179 31.1289 19.1383 31.2274 19.1383 31.3301V31.7173H18.3638V31.3301C18.3638 31.2274 18.323 31.1289 18.2504 31.0563C18.1778 30.9837 18.0793 30.9429 17.9766 30.9429C17.8739 30.9429 17.7754 30.9837 17.7028 31.0563C17.6302 31.1289 17.5894 31.2274 17.5894 31.3301V31.7173H17.2022C17.0995 31.7173 17.001 31.7581 16.9284 31.8307C16.8557 31.9033 16.8149 32.0018 16.8149 32.1045C16.8149 32.2072 16.8557 32.3057 16.9284 32.3783C17.001 32.451 17.0995 32.4917 17.2022 32.4917H17.5894V32.879C17.5894 32.9817 17.6302 33.0802 17.7028 33.1528C17.7754 33.2254 17.8739 33.2662 17.9766 33.2662C18.0793 33.2662 18.1778 33.2254 18.2504 33.1528C18.323 33.0802 18.3638 32.9817 18.3638 32.879V32.4917H19.1383V32.879C19.1383 32.9817 19.179 33.0802 19.2517 33.1528C19.3243 33.2254 19.4228 33.2662 19.5255 33.2662C19.6282 33.2662 19.7267 33.2254 19.7993 33.1528C19.8719 33.0802 19.9127 32.9817 19.9127 32.879V32.4917H20.6871V32.879C20.6871 32.9817 20.7279 33.0802 20.8005 33.1528C20.8732 33.2254 20.9716 33.2662 21.0743 33.2662C21.177 33.2662 21.2755 33.2254 21.3482 33.1528C21.4208 33.0802 21.4616 32.9817 21.4616 32.879V32.4917H22.236V32.879C22.236 32.9817 22.2768 33.0802 22.3494 33.1528C22.422 33.2254 22.5205 33.2662 22.6232 33.2662C22.7259 33.2662 22.8244 33.2254 22.897 33.1528C22.9696 33.0802 23.0104 32.9817 23.0104 32.879V32.4917H23.7849V32.879C23.7849 32.9817 23.8257 33.0802 23.8983 33.1528C23.9709 33.2254 24.0694 33.2662 24.1721 33.2662C24.2748 33.2662 24.3733 33.2254 24.4459 33.1528C24.5185 33.0802 24.5593 32.9817 24.5593 32.879V32.4917H24.9465C25.0492 32.4917 25.1477 32.451 25.2203 32.3783C25.293 32.3057 25.3337 32.2072 25.3337 32.1045C25.3337 32.0018 25.293 31.9033 25.2203 31.8307C25.1477 31.7581 25.0492 31.7173 24.9465 31.7173Z" fill="white"/>
</g>
</g>
</g>
</g>
<defs>
<clipPath id="clip0_1259_32">
<rect width="95.0769" height="22.9603" fill="white" transform="translate(11.7793 13.4609)"/>
</clipPath>
<clipPath id="clip1_1259_32">
<rect width="95.0769" height="22.9603" fill="white" transform="translate(11.7793 13.4609)"/>
</clipPath>
<clipPath id="clip2_1259_32">
<rect width="65.9004" height="22.8461" fill="white" transform="translate(40.9556 13.5181)"/>
</clipPath>
<clipPath id="clip3_1259_32">
<rect width="65.9004" height="22.8461" fill="white" transform="translate(40.9556 13.5181)"/>
</clipPath>
<clipPath id="clip4_1259_32">
<rect width="65.9004" height="22.8461" fill="white" transform="translate(40.9556 13.5181)"/>
</clipPath>
<clipPath id="clip5_1259_32">
<rect width="65.9004" height="22.8461" fill="white" transform="translate(40.9556 13.5181)"/>
</clipPath>
<clipPath id="clip6_1259_32">
<rect width="23.2392" height="22.8461" fill="white" transform="translate(11.7793 13.5181)"/>
</clipPath>
<clipPath id="clip7_1259_32">
<rect width="23.2392" height="22.8461" fill="white" transform="translate(11.7793 13.5181)"/>
</clipPath>
</defs>
</svg>
